<?xml version='1.0'?>
<!--
Bitly Generated QR Code
v5
37x37
-->
<svg width='720' height='720'
xmlns='http://www.w3.org/2000/svg'
xmlns:xlink='http://www.w3.org/1999/xlink'>
	<g id='background' style='fill:#ffffff' >
<rect x="0" y="0" width="720" height="720" />
</g>
<g id='pips' style='fill:#000000' >
<path d="M64,240L80,240L96,240L112,240L128,240L128,224L144,224L144,240L144,256L160,256L176,256L176,240L192,240L192,224L208,224L208,240L224,240L224,256L208,256L192,256L192,272L176,272L160,272L144,272L128,272L128,256L112,256L112,272L112,288L96,288L96,272L80,272L64,272L64,256L64,240M64,304L80,304L80,320L96,320L96,336L80,336L64,336L64,320L64,304M64,352L80,352L80,368L80,384L64,384L64,368L64,352M64,480L80,480L80,496L64,496L64,480M64,512L80,512L80,528L64,528L64,512M80,288L96,288L96,304L80,304L80,288M80,416L96,416L96,432L80,432L80,416M80,448L96,448L96,464L112,464L112,480L96,480L80,480L80,464L80,448M80,496L96,496L112,496L112,480L128,480L144,480L160,480L176,480L192,480L192,464L192,448L192,432L208,432L208,416L192,416L192,432L176,432L160,432L144,432L144,416L144,400L144,384L160,384L176,384L192,384L192,400L208,400L208,384L192,384L192,368L208,368L208,352L208,336L192,336L192,320L208,320L224,320L224,304L208,304L208,288L192,288L192,272L208,272L224,272L224,288L240,288L240,304L256,304L256,288L272,288L272,272L288,272L304,272L304,288L288,288L288,304L272,304L272,320L256,320L256,336L272,336L288,336L304,336L304,320L320,320L320,336L336,336L352,336L352,320L368,320L368,336L384,336L384,352L400,352L400,368L384,368L384,384L400,384L416,384L416,400L432,400L432,416L416,416L416,432L400,432L384,432L384,416L400,416L400,400L384,400L384,416L368,416L368,432L352,432L352,448L368,448L368,464L352,464L352,480L352,496L352,512L368,512L368,528L352,528L336,528L320,528L304,528L304,544L288,544L288,528L288,512L304,512L320,512L336,512L336,496L336,480L320,480L320,496L304,496L288,496L288,480L288,464L272,464L272,448L272,432L256,432L256,416L240,416L240,400L224,400L224,416L224,432L240,432L240,448L256,448L256,464L272,464L272,480L256,480L240,480L240,464L224,464L224,448L208,448L208,464L224,464L224,480L240,480L240,496L224,496L224,512L240,512L240,528L224,528L224,544L240,544L240,560L224,560L208,560L208,544L192,544L192,528L176,528L160,528L160,512L176,512L176,496L160,496L160,512L144,512L144,496L128,496L128,512L112,512L112,528L96,528L96,512L80,512L80,496M96,192L112,192L112,208L128,208L128,224L112,224L96,224L96,208L96,192M96,368L112,368L128,368L128,384L128,400L128,416L112,416L96,416L96,400L112,400L112,384L96,384L96,368M112,288L128,288L128,304L144,304L160,304L160,320L176,320L176,336L160,336L160,352L176,352L176,368L160,368L144,368L144,352L144,336L128,336L128,320L112,320L112,304L112,288M112,336L128,336L128,352L112,352L112,336M112,432L128,432L144,432L144,448L144,464L128,464L128,448L112,448L112,432M128,192L144,192L160,192L176,192L176,208L160,208L160,224L144,224L144,208L128,208L128,192M128,512L144,512L144,528L128,528L128,512M160,400L160,416L176,416L176,400L160,400M160,224L176,224L176,240L160,240L160,224M160,288L176,288L176,304L160,304L160,288M160,448L176,448L176,464L160,464L160,448M176,336L192,336L192,352L176,352L176,336M192,64L208,64L224,64L224,80L224,96L240,96L240,80L240,64L256,64L256,80L272,80L288,80L288,96L272,96L256,96L256,112L256,128L240,128L240,144L224,144L224,160L208,160L208,144L208,128L192,128L192,112L208,112L208,96L208,80L192,80L192,64M192,160L208,160L208,176L192,176L192,160M192,192L208,192L208,208L192,208L192,192M192,560L208,560L208,576L224,576L240,576L256,576L256,592L240,592L224,592L208,592L192,592L192,576L192,560M192,608L208,608L224,608L240,608L256,608L256,624L240,624L240,640L224,640L224,656L208,656L208,640L208,624L192,624L192,608M208,176L224,176L224,192L208,192L208,176M224,336L224,352L240,352L240,368L256,368L256,384L256,400L272,400L288,400L288,416L288,432L304,432L320,432L320,448L336,448L336,432L320,432L320,416L320,400L336,400L336,416L352,416L352,400L368,400L368,384L352,384L352,368L368,368L368,352L352,352L352,368L336,368L336,384L320,384L304,384L304,368L320,368L320,352L304,352L288,352L272,352L256,352L240,352L240,336L224,336M224,160L240,160L240,176L224,176L224,160M224,208L240,208L256,208L272,208L272,192L288,192L288,176L288,160L304,160L304,176L304,192L320,192L336,192L336,208L336,224L336,240L336,256L336,272L320,272L320,256L304,256L288,256L272,256L272,272L256,272L256,288L240,288L240,272L224,272L224,256L240,256L256,256L256,240L272,240L288,240L304,240L320,240L320,224L320,208L304,208L288,208L288,224L272,224L256,224L240,224L240,240L224,240L224,224L224,208M240,176L256,176L256,192L240,192L240,176M240,496L256,496L272,496L272,512L272,528L256,528L256,512L240,512L240,496M240,640L256,640L256,624L272,624L288,624L288,640L288,656L272,656L256,656L240,656L240,640M256,128L272,128L272,144L288,144L288,160L272,160L272,176L256,176L256,160L256,144L256,128M256,544L272,544L272,560L256,560L256,544M256,592L272,592L288,592L288,608L272,608L256,608L256,592M272,112L288,112L304,112L304,96L304,80L320,80L320,96L336,96L336,112L352,112L352,128L368,128L368,144L368,160L368,176L384,176L384,160L400,160L400,176L416,176L416,192L432,192L432,208L432,224L416,224L416,208L400,208L400,224L384,224L384,208L384,192L368,192L368,208L352,208L352,192L352,176L352,160L336,160L336,144L320,144L320,160L304,160L304,144L288,144L288,128L272,128L272,112M272,560L288,560L288,576L272,576L272,560M288,608L304,608L320,608L320,624L304,624L288,624L288,608M304,544L320,544L336,544L336,560L320,560L304,560L304,544M304,576L320,576L336,576L352,576L368,576L368,592L368,608L352,608L352,624L352,640L336,640L336,656L320,656L320,640L320,624L336,624L336,608L336,592L320,592L304,592L304,576M320,64L336,64L352,64L368,64L384,64L384,80L384,96L384,112L368,112L352,112L352,96L336,96L336,80L320,80L320,64M320,160L336,160L336,176L320,176L320,160M320,288L336,288L336,304L320,304L320,288M336,272L352,272L352,288L336,288L336,272M336,304L352,304L352,320L336,320L336,304M352,224L368,224L384,224L384,240L384,256L400,256L400,272L416,272L416,256L416,240L432,240L432,256L432,272L448,272L448,288L448,304L432,304L432,320L448,320L448,304L464,304L480,304L496,304L512,304L512,320L496,320L480,320L480,336L496,336L496,352L480,352L464,352L448,352L432,352L432,368L448,368L464,368L480,368L480,384L496,384L496,400L496,416L480,416L480,400L464,400L464,384L448,384L448,400L432,400L432,384L416,384L416,368L416,352L416,336L400,336L400,320L400,304L416,304L416,288L400,288L400,304L384,304L384,288L384,272L368,272L368,256L352,256L352,240L352,224M352,640L368,640L384,640L400,640L416,640L432,640L432,656L416,656L400,656L384,656L368,656L352,656L352,640M368,432L384,432L384,448L368,448L368,432M368,464L384,464L384,480L384,496L384,512L368,512L368,496L368,480L368,464M368,528L384,528L400,528L416,528L416,544L400,544L400,560L400,576L384,576L368,576L368,560L384,560L384,544L368,544L368,528M384,128L400,128L400,144L384,144L384,128M384,448L400,448L416,448L416,432L432,432L432,416L448,416L464,416L480,416L480,432L464,432L464,448L464,464L480,464L480,480L496,480L496,496L480,496L480,512L480,528L480,544L496,544L512,544L512,528L512,512L528,512L544,512L544,496L544,480L560,480L560,496L560,512L576,512L576,496L592,496L608,496L608,512L592,512L592,528L592,544L592,560L592,576L608,576L608,592L592,592L592,608L576,608L576,624L576,640L576,656L560,656L560,640L560,624L560,608L560,592L544,592L544,608L544,624L528,624L528,640L544,640L544,656L528,656L512,656L496,656L496,640L480,640L480,656L464,656L464,640L464,624L464,608L480,608L480,624L496,624L512,624L512,608L496,608L496,592L512,592L512,576L496,576L496,560L480,560L480,576L496,576L496,592L480,592L464,592L464,576L464,560L448,560L448,544L464,544L464,528L464,512L448,512L448,496L432,496L432,512L416,512L400,512L400,496L400,480L400,464L384,464L384,448M384,592L400,592L400,576L416,576L416,592L432,592L448,592L448,608L432,608L432,624L416,624L400,624L384,624L384,608L384,592M400,64L416,64L416,80L400,80L400,64M400,224L416,224L416,240L400,240L400,224M416,464L416,480L432,480L432,464L448,464L448,448L432,448L432,464L416,464M416,96L432,96L432,80L448,80L448,96L464,96L464,112L448,112L432,112L416,112L416,96M416,160L432,160L432,176L416,176L416,160M416,544L432,544L432,560L432,576L416,576L416,560L416,544M432,128L448,128L464,128L464,144L448,144L432,144L432,128M432,176L448,176L448,192L432,192L432,176M432,512L448,512L448,528L432,528L432,512M432,624L448,624L448,640L432,640L432,624M448,160L464,160L464,176L448,176L448,160M448,192L464,192L464,208L464,224L448,224L448,208L448,192M448,256L464,256L464,240L464,224L480,224L480,240L496,240L496,256L480,256L480,272L480,288L464,288L464,272L448,272L448,256M464,144L480,144L480,160L464,160L464,144M464,176L480,176L480,160L496,160L496,176L496,192L512,192L512,176L512,160L496,160L496,144L496,128L496,112L512,112L512,128L528,128L528,144L528,160L528,176L528,192L544,192L544,208L528,208L528,224L528,240L544,240L544,256L560,256L560,272L576,272L576,288L576,304L592,304L592,320L576,320L560,320L560,336L576,336L576,352L592,352L592,368L592,384L576,384L576,400L560,400L560,416L544,416L544,400L544,384L560,384L560,368L560,352L544,352L544,336L528,336L528,320L544,320L544,304L560,304L560,288L544,288L544,272L528,272L528,256L512,256L512,240L496,240L496,224L480,224L480,208L480,192L464,192L464,176M480,64L496,64L512,64L512,80L512,96L496,96L496,80L480,80L480,64M480,96L496,96L496,112L480,112L480,96M496,256L512,256L512,272L496,272L496,256M496,368L512,368L512,384L496,384L496,368M496,448L512,448L512,464L512,480L496,480L496,464L496,448M496,496L512,496L512,512L496,512L496,496M512,288L528,288L544,288L544,304L528,304L512,304L512,288M512,336L528,336L528,352L512,352L512,336M512,384L528,384L528,400L512,400L512,384M512,416L528,416L544,416L544,432L560,432L560,448L544,448L544,464L544,480L528,480L528,464L528,448L528,432L512,432L512,416M528,528L528,544L528,560L528,576L544,576L560,576L576,576L576,560L576,544L576,528L560,528L544,528L528,528M528,352L544,352L544,368L528,368L528,352M544,224L560,224L560,208L576,208L576,224L592,224L592,208L592,192L608,192L608,208L608,224L624,224L624,208L640,208L640,192L656,192L656,208L656,224L656,240L640,240L640,256L656,256L656,272L656,288L656,304L640,304L640,288L624,288L624,304L608,304L608,288L592,288L592,272L592,256L608,256L608,272L624,272L624,256L624,240L608,240L592,240L576,240L576,256L560,256L560,240L544,240L544,224M544,544L560,544L560,560L544,560L544,544M576,416L592,416L592,400L608,400L608,416L624,416L640,416L640,400L640,384L640,368L624,368L624,352L608,352L608,336L624,336L624,320L624,304L640,304L640,320L656,320L656,336L656,352L656,368L656,384L656,400L656,416L656,432L640,432L624,432L608,432L592,432L576,432L576,416M576,448L592,448L592,464L608,464L608,480L592,480L576,480L576,464L576,448M592,320L608,320L608,336L592,336L592,320M608,512L624,512L640,512L640,528L624,528L608,528L608,512M608,544L624,544L640,544L640,528L656,528L656,544L656,560L640,560L624,560L608,560L608,544M608,592L624,592L640,592L656,592L656,608L640,608L624,608L608,608L608,592M624,448L640,448L640,464L624,464L624,448M624,480L640,480L640,464L656,464L656,480L656,496L640,496L624,496L624,480Z" />
<path d="M4.7253,9.0689C6.179,9.0436 6.4149,7.6154 6.4149,6.769C6.4149,5.5163 5.775,5.0788 5,5C4.0425,5.4242 3.3403,6.146 3.2555,7.2606C3.2416,7.4443 3.237,7.6894 3.2516,7.9757C3.2906,8.7383 3.8493,9.0843 4.7253,9.0689 M 12.2447 10.8068 C 11.2047 10.8068 10.1118 10.1673 10.06 8.9707 C 8.8774 10.2223 7.0538 10.8186 4.7253 10.8186 C 2.3769 10.8186 1.396 9.2175 1.396 7.9703 C 1.4554 3.8126 1.3605 2.255 1.341 1.9353 C 1.3393 1.907 1.3381 1.8884 1.3377 1.8785 L 1.3373 1.8677 C 1.3313 1.7096 1.3224 1.4733 1.172 1.4572 C 1.0786 1.4472 1.0183 1.4757 0.911 1.6094 C 0.75 1.8233 0.425 1.908 0.2273 1.7937 C -0.0116 1.6555 -0.0562 1.3505 0.0647 1.0697 C 0.4002 0.3212 0.9379 -0.01 1.6625 0.0003 C 2.9146 0.0182 3.2738 0.8359 3.2738 1.8575 C 3.2738 1.8575 3.246 3.3292 3.246 4.1579 C 3.689 3.7969 4.3397 3.4098 5.4266 3.4098 C 7.6899 3.4098 9.1267 6.2118 7.6503 8.8925 C 9.5428 8.0197 9.9378 6.5164 10.0112 5.0238 L 10.0043 4.5203 C 10.0043 3.9552 10.3688 3.4767 10.9361 3.4767 C 11.5034 3.4767 11.8802 3.9877 11.86 4.5271 C 11.7919 6.3438 11.7644 7.5395 11.7644 8.1722 C 11.7644 8.5384 11.9642 9.0996 12.5555 9.0996 C 13.7134 9.0996 14.094 8.1922 14.1838 6.0595 C 14.1885 5.2642 14.1927 4.5997 14.1927 4.5997 C 13.6679 4.5997 13.4094 4.324 13.4094 3.9795 C 13.4094 3.635 13.683 3.3163 14.1321 3.3163 C 14.1321 3.3163 14.133 2.1182 14.133 1.622 C 14.133 1.0569 14.5715 0.5883 15.1388 0.5883 C 15.7062 0.5883 16.1567 1.0569 16.1567 1.622 C 16.1567 1.8095 16.1495 2.028 16.1416 2.2695 C 16.1315 2.5784 16.1201 2.9246 16.121 3.2909 L 16.2032 3.2905 H 16.2032 C 16.357 3.29 16.7051 3.2888 17.1681 3.2834 C 17.7198 3.2769 17.9445 3.5851 17.9445 3.9709 C 17.9445 4.3567 17.6475 4.626 17.2602 4.6276 C 16.9012 4.6291 16.1083 4.6247 16.1083 4.6247 C 16.0723 5.7674 16.0382 7.1451 16.0382 8.2475 C 16.0382 8.6451 16.3126 9.0995 16.9767 9.0995 C 18.3163 9.0995 18.8167 7.9092 18.9173 5.6498 C 18.9095 4.0766 18.8907 3.1653 18.8765 2.4785 V 2.4785 C 18.8666 1.9969 18.859 1.6258 18.859 1.2143 C 18.859 0.6493 19.3295 0.1442 19.8967 0.1442 C 20.4641 0.1442 20.8826 0.5977 20.8826 1.1627 C 20.8826 1.598 20.8651 2.1069 20.8413 2.8009 V 2.8009 V 2.801 C 20.801 3.9747 20.7425 5.6778 20.7195 8.4504 C 20.7165 8.8195 20.8967 9.0795 21.3748 9.0795 C 22.6524 9.0795 23.0066 7.6955 23.119 5.7625 C 23.1197 5.6695 23.1205 5.5785 23.1214 5.4891 L 23.1214 5.4887 C 23.1231 5.3054 23.1247 5.1289 23.1247 4.9561 C 23.1247 4.391 23.5011 3.9337 24.0686 3.9337 C 24.6359 3.9337 24.9694 4.4022 24.9694 4.9673 C 24.9694 5.3698 24.9562 5.7464 24.9427 6.1348 C 24.9307 6.4777 24.9184 6.8299 24.9146 7.2176 C 24.9047 8.2151 25.2455 9.0938 26.0756 9.0914 C 26.8726 9.0891 27.7479 8.7536 27.7691 7.045 C 27.7751 6.5701 27.7683 6.2053 27.7615 5.8371 V 5.837 V 5.8369 V 5.8368 C 27.7564 5.5642 27.7513 5.2897 27.7513 4.9673 C 27.7513 4.4022 28.1451 3.9337 28.7125 3.9337 C 29.2795 3.9337 29.6737 4.4022 29.6737 4.9673 C 29.6737 5.3051 29.6614 5.6415 29.6477 6.0145 V 6.0145 V 6.0146 V 6.0146 C 29.6307 6.4783 29.6117 6.9984 29.6117 7.6477 C 29.6117 7.6477 29.5769 10.0141 29.66 10.5378 C 29.9203 10.4512 30.2958 10.1968 30.6935 9.5802 C 30.9337 9.208 31.3928 9.1282 31.6758 9.293 C 32.0653 9.52 32.0514 9.9635 31.9058 10.2875 C 31.5298 11.1239 31.0409 11.6358 29.8047 12.0595 C 29.8086 13.4782 29.7098 15.5713 27.0868 15.9496 C 24.8405 16.2735 23.8244 14.9708 23.8211 13.8623 C 23.8157 12.112 25.5649 11.6022 28.0897 10.9665 L 28.0087 10.099 C 28.0087 10.099 27.4464 10.8364 26.0215 10.8008 C 24.9223 10.7733 24.1663 10.2543 23.7077 9.5213 C 23.1787 10.3901 22.3495 10.8105 21.1004 10.8105 C 20.2775 10.8105 19.4934 10.3758 19.1051 9.7457 C 18.5325 10.4308 17.7339 10.8015 16.6607 10.8015 C 15.7256 10.8015 15.0346 10.4786 14.6209 9.9746 C 14.087 10.5712 13.318 10.8068 12.2447 10.8068 Z M 28.2548 12.363 C 26.9786 12.6385 25.3798 13.0407 25.3983 13.8266 C 25.4158 14.5636 26.1767 14.6977 26.8111 14.5666 C 28.1286 14.2943 28.2816 13.5015 28.2548 12.363 Z M 11.9704 1.6249 C 11.9704 1.0544 11.5073 0.5932 10.9347 0.5932 C 10.3619 0.5932 9.8989 1.0544 9.8989 1.6249 C 9.8989 2.1953 10.3619 2.6566 10.9347 2.6566 C 11.5073 2.6566 11.9704 2.1953 11.9704 1.6249 Z" fill='#000000' transform='translate(584.000000, 620.000000) scale(2.250000, 2.250000)' />
</g>
<g id='corners-outer-1' transform="translate(64, 64) scale(5.60, 5.60) " style='fill:#000000' >
<path d="M 17.14 0 H 2 C 0.9 0 0 0.9 0 2 V 18 C 0 19.1 0.9 20 2 20 H 18 C 19.1 20 20 19.1 20 18 V 2 C 20 0.9 19.1 0 18 0 H 17.14 Z M 17.14 5.71 V 15.14 C 17.14 16.25 16.25 17.14 15.14 17.14 H 4.86 C 3.75 17.14 2.86 16.25 2.86 15.14 V 4.86 C 2.86 3.75 3.75 2.86 4.86 2.86 H 15.14 C 16.25 2.86 17.14 3.75 17.14 4.86 V 5.71 Z" />
</g>
<g id='corners-inner-1' transform="translate(96, 96) scale(5.60, 5.60) " style='fill:#000000' >
<path d="M 5.64 0 H 1 C 0.45 0 0 0.45 0 1 V 7.46 C 0 8.01 0.45 8.46 1 8.46 H 7.46 C 8.01 8.46 8.46 8.01 8.46 7.46 V 1 C 8.46 0.45 8.01 0 7.46 0 H 5.64 Z" />
</g>
<g id='corners-outer-2' transform="translate(544, 64) scale(5.60, 5.60) " style='fill:#000000' >
<path d="M 17.14 0 H 2 C 0.9 0 0 0.9 0 2 V 18 C 0 19.1 0.9 20 2 20 H 18 C 19.1 20 20 19.1 20 18 V 2 C 20 0.9 19.1 0 18 0 H 17.14 Z M 17.14 5.71 V 15.14 C 17.14 16.25 16.25 17.14 15.14 17.14 H 4.86 C 3.75 17.14 2.86 16.25 2.86 15.14 V 4.86 C 2.86 3.75 3.75 2.86 4.86 2.86 H 15.14 C 16.25 2.86 17.14 3.75 17.14 4.86 V 5.71 Z" />
</g>
<g id='corners-inner-2' transform="translate(576, 96) scale(5.60, 5.60) " style='fill:#000000' >
<path d="M 5.64 0 H 1 C 0.45 0 0 0.45 0 1 V 7.46 C 0 8.01 0.45 8.46 1 8.46 H 7.46 C 8.01 8.46 8.46 8.01 8.46 7.46 V 1 C 8.46 0.45 8.01 0 7.46 0 H 5.64 Z" />
</g>
<g id='corners-outer-3' transform="translate(64, 544) scale(5.60, 5.60) " style='fill:#000000' >
<path d="M 17.14 0 H 2 C 0.9 0 0 0.9 0 2 V 18 C 0 19.1 0.9 20 2 20 H 18 C 19.1 20 20 19.1 20 18 V 2 C 20 0.9 19.1 0 18 0 H 17.14 Z M 17.14 5.71 V 15.14 C 17.14 16.25 16.25 17.14 15.14 17.14 H 4.86 C 3.75 17.14 2.86 16.25 2.86 15.14 V 4.86 C 2.86 3.75 3.75 2.86 4.86 2.86 H 15.14 C 16.25 2.86 17.14 3.75 17.14 4.86 V 5.71 Z" />
</g>
<g id='corners-inner-3' transform="translate(96, 576) scale(5.60, 5.60) " style='fill:#000000' >
<path d="M 5.64 0 H 1 C 0.45 0 0 0.45 0 1 V 7.46 C 0 8.01 0.45 8.46 1 8.46 H 7.46 C 8.01 8.46 8.46 8.01 8.46 7.46 V 1 C 8.46 0.45 8.01 0 7.46 0 H 5.64 Z" />
</g>
</svg>
